<svg width="128" height="128" viewBox="0 0 128 128" fill="none" xmlns="http://www.w3.org/2000/svg">
<g clip-path="url(#clip0_1_9)">
<path d="M33.0156 26.6719C33.0156 27.3281 32.9219 27.8906 32.7344 28.3594C32.5469 28.8281 32.2969 29.2656 31.9844 29.6719C31.7031 30.0469 31.3906 30.4219 31.0469 30.7969C30.7344 31.1406 30.4375 31.5313 30.1562 31.9688C29.75 32.5625 29.4062 33.2031 29.125 33.8906C28.875 34.5469 28.625 35.2188 28.375 35.9062C28.1562 36.5938 27.9062 37.2812 27.625 37.9688C27.375 38.625 27.0312 39.25 26.5938 39.8438C25.9375 40.625 25.4219 41.4844 25.0469 42.4219C24.6719 43.3594 24.3906 44.3281 24.2031 45.3281C24.0469 46.3281 23.9375 47.3438 23.875 48.375C23.8438 49.4062 23.8281 50.4219 23.8281 51.4219C23.8281 51.7656 23.7969 52.3281 23.7344 53.1094C23.6719 53.8906 23.5781 54.7344 23.4531 55.6406C23.3594 56.5469 23.2344 57.4375 23.0781 58.3125C22.9219 59.1562 22.75 59.8125 22.5625 60.2812L22 61.5469C21.9062 61.9844 21.8594 62.3906 21.8594 62.7656C21.8594 63.2969 21.8906 63.8281 21.9531 64.3594C22.0469 64.8906 22.0938 65.4219 22.0938 65.9531C22.0938 66.7344 21.9531 67.4688 21.6719 68.1562C21.3906 68.8438 21.25 69.5781 21.25 70.3594C21.25 70.7344 21.3281 71.0781 21.4844 71.3906C21.6406 71.6719 21.8125 71.9688 22 72.2812C22.1875 72.5938 22.3594 72.9219 22.5156 73.2656C22.6719 73.6094 22.75 74.0156 22.75 74.4844C22.75 74.9844 22.7188 75.4688 22.6562 75.9375C22.5938 76.4062 22.5625 76.8594 22.5625 77.2969C22.5625 78.2344 22.6719 78.9688 22.8906 79.5C23.1094 80 23.3594 80.4375 23.6406 80.8125C23.9531 81.1562 24.25 81.5156 24.5312 81.8906C24.8125 82.2656 25.0156 82.7812 25.1406 83.4375C25.2969 84 25.3594 84.5625 25.3281 85.125C25.3281 85.6562 25.375 86.2031 25.4688 86.7656C25.5312 87.2344 25.6406 87.6875 25.7969 88.125C25.9531 88.5312 26.1094 88.9531 26.2656 89.3906C26.4219 89.7969 26.5625 90.2344 26.6875 90.7031C26.8125 91.1406 26.875 91.5938 26.875 92.0625C26.875 92.3125 26.9531 92.5781 27.1094 92.8594C27.2656 93.1094 27.4531 93.3594 27.6719 93.6094C27.8906 93.8281 28.1094 94.0469 28.3281 94.2656C28.5781 94.4844 28.7656 94.6719 28.8906 94.8281C29.1719 95.2031 29.3438 95.5938 29.4062 96C29.5 96.4375 29.5625 96.8594 29.5938 97.2656C29.6562 97.7031 29.7344 98.125 29.8281 98.5312C29.9531 98.9688 30.1875 99.375 30.5312 99.75C30.6875 99.8438 30.8281 99.9375 30.9531 100.031C31.0781 100.125 31.1719 100.25 31.2344 100.406L31.5156 101.109C31.5156 101.328 31.3906 101.531 31.1406 101.719C30.9219 101.938 30.6562 102.125 30.3438 102.281C30.0312 102.438 29.7031 102.562 29.3594 102.656C29.0469 102.75 28.7969 102.797 28.6094 102.797C28.5469 102.797 28.3438 102.641 28 102.328C27.6875 102.016 27.3438 101.656 26.9688 101.25C26.5938 100.875 26.2188 100.5 25.8438 100.125C25.5 99.75 25.2656 99.5 25.1406 99.375C25.0469 98.75 24.9375 98.2969 24.8125 98.0156C24.6875 97.7656 24.4844 97.375 24.2031 96.8438C24.0156 96.4688 23.8906 96.0781 23.8281 95.6719C23.7969 95.2344 23.7344 94.7969 23.6406 94.3594C23.4844 93.6406 23.1875 93 22.75 92.4375C22.3438 91.8438 21.9688 91.2344 21.625 90.6094C21.0938 89.6094 20.6562 88.5469 20.3125 87.4219C20 86.2969 19.7031 85.1875 19.4219 84.0938C19.2344 83.3438 19.0312 82.7812 18.8125 82.4062C18.625 82 18.4375 81.625 18.25 81.2812C18.0938 80.9062 17.9531 80.4844 17.8281 80.0156C17.7344 79.5156 17.6875 78.7969 17.6875 77.8594C17.6875 77.4844 17.625 77.1094 17.5 76.7344C17.375 76.3281 17.3125 75.9375 17.3125 75.5625C17.3125 75.3125 17.3594 75.0625 17.4531 74.8125C17.5469 74.5312 17.5938 74.2656 17.5938 74.0156C17.5938 73.5469 17.5 73.1094 17.3125 72.7031C17.1562 72.2969 17.0469 71.875 16.9844 71.4375C16.8281 70.625 16.7188 69.8281 16.6562 69.0469C16.5938 68.2344 16.5312 67.4375 16.4688 66.6562C16.4062 65.8438 16.2969 65.0625 16.1406 64.3125C16.0156 63.5312 15.7969 62.7656 15.4844 62.0156C15.4844 61.5781 15.5625 61.1719 15.7188 60.7969C15.875 60.3906 15.9531 59.9688 15.9531 59.5312C15.9531 58.625 15.7969 57.7344 15.4844 56.8594C15.2031 55.9531 15.0625 55.0469 15.0625 54.1406C15.0625 53.7969 15.1875 53.3594 15.4375 52.8281C15.7188 52.2969 16.0156 51.7344 16.3281 51.1406C16.6406 50.5469 16.9219 49.9688 17.1719 49.4062C17.4531 48.8125 17.5938 48.2812 17.5938 47.8125C17.5938 47.5312 17.5469 47.2656 17.4531 47.0156C17.3594 46.7344 17.3125 46.4531 17.3125 46.1719C17.3125 45.7969 17.3906 45.4688 17.5469 45.1875C17.7031 44.875 17.875 44.5781 18.0625 44.2969C18.25 44.0156 18.4219 43.7344 18.5781 43.4531C18.7344 43.1406 18.8125 42.7969 18.8125 42.4219C18.8125 42.0469 18.75 41.6719 18.625 41.2969C18.5 40.8906 18.4375 40.5 18.4375 40.125C18.9375 39.9375 19.3594 39.6406 19.7031 39.2344C20.0781 38.8281 20.2656 38.3594 20.2656 37.8281C20.2656 37.5469 20.2188 37.2656 20.125 36.9844C20.0312 36.6719 19.9844 36.375 19.9844 36.0938C19.9844 35.75 20.0469 35.3281 20.1719 34.8281C20.2969 34.3281 20.4375 33.8125 20.5938 33.2812C20.7812 32.75 20.9688 32.2344 21.1562 31.7344C21.375 31.2344 21.5625 30.8281 21.7188 30.5156C21.9688 30.0469 22.125 29.5625 22.1875 29.0625C22.25 28.5625 22.4062 28.0625 22.6562 27.5625C22.9375 26.9375 23.3281 26.375 23.8281 25.875C24.3281 25.3438 24.8906 24.8906 25.5156 24.5156C26.1406 24.1406 26.7969 23.8594 27.4844 23.6719C28.2031 23.4531 28.9062 23.3438 29.5938 23.3438C30.6562 23.3438 31.4844 23.6406 32.0781 24.2344C32.7031 24.7969 33.0156 25.6094 33.0156 26.6719ZM68.3594 37.1719C68.3594 38.0781 68.2031 39.0156 67.8906 39.9844C67.6094 40.9219 67.1875 41.7969 66.625 42.6094C66.0625 43.3906 65.375 44.0469 64.5625 44.5781C63.7812 45.0781 62.9062 45.3281 61.9375 45.3281C61.2812 45.3281 60.4688 45.2344 59.5 45.0469C58.5312 44.8281 57.5938 44.5312 56.6875 44.1562C55.8125 43.75 55.0469 43.2344 54.3906 42.6094C53.7656 41.9844 53.4531 41.25 53.4531 40.4062C53.4531 39.6562 53.5312 38.8906 53.6875 38.1094C53.875 37.2969 53.9844 36.4844 54.0156 35.6719C54.3281 35.5156 54.6406 35.2344 54.9531 34.8281C55.2656 34.4219 55.5625 34.0156 55.8438 33.6094C56.1562 33.1719 56.4531 32.7812 56.7344 32.4375C57.0469 32.0938 57.3594 31.9063 57.6719 31.875L57.4375 31.9688C57.875 31.7812 58.3281 31.625 58.7969 31.5C59.2969 31.375 59.7969 31.3125 60.2969 31.3125C60.9531 31.3125 61.7344 31.4844 62.6406 31.8281C63.5781 32.1406 64.4688 32.5625 65.3125 33.0938C66.1562 33.625 66.875 34.25 67.4688 34.9688C68.0625 35.6875 68.3594 36.4219 68.3594 37.1719ZM91.0469 94.2188C91.0469 94.75 90.9375 95.25 90.7188 95.7188C90.5312 96.1875 90.25 96.5938 89.875 96.9375C89.5312 97.3125 89.125 97.6094 88.6562 97.8281C88.1875 98.0469 87.6719 98.1562 87.1094 98.1562C86.8906 98.1562 86.75 98.125 86.6875 98.0625C86.625 98 86.5156 97.8906 86.3594 97.7344C85.9219 97.2656 85.3906 96.9844 84.7656 96.8906C84.1406 96.8281 83.4844 96.75 82.7969 96.6562C82.1406 96.5938 81.5 96.4219 80.875 96.1406C80.2812 95.8906 79.7969 95.3594 79.4219 94.5469C79.1719 94.0156 78.9062 93.6719 78.625 93.5156C78.3438 93.3594 77.9062 93.2812 77.3125 93.2812C75.9375 93.2812 74.625 93.5 73.375 93.9375C72.125 94.375 70.8906 94.875 69.6719 95.4375C68.4531 95.9688 67.2031 96.4531 65.9219 96.8906C64.6719 97.3281 63.375 97.5469 62.0312 97.5469C61.2812 97.5469 60.5312 97.4688 59.7812 97.3125C59.0625 97.1875 58.3594 96.9688 57.6719 96.6562C57.5156 96.8125 57.3281 96.9219 57.1094 96.9844C56.9219 97.0469 56.7031 97.0781 56.4531 97.0781C56.2344 97.0781 56.0156 97.0625 55.7969 97.0312C55.6094 97 55.4375 96.9844 55.2812 96.9844C55.25 96.9844 55.0781 97.0312 54.7656 97.125C54.4531 97.25 54.2656 97.3281 54.2031 97.3594L54.4844 97.8281C54.2969 98.1094 53.875 98.375 53.2188 98.625C52.5625 98.9062 51.8438 99.1406 51.0625 99.3281C50.3125 99.5156 49.5781 99.6719 48.8594 99.7969C48.1406 99.9219 47.5938 99.9844 47.2188 99.9844C46.2188 99.9844 45.3906 99.8125 44.7344 99.4688C44.1094 99.1562 43.4844 98.5938 42.8594 97.7812C42.6406 97.4688 42.3594 97.1562 42.0156 96.8438C41.7031 96.5312 41.3906 96.2188 41.0781 95.9062C40.7969 95.5625 40.5469 95.2031 40.3281 94.8281C40.1406 94.4531 40.0469 94.0625 40.0469 93.6562C40.0469 93.1875 40.2969 92.7969 40.7969 92.4844C41.2969 92.1719 41.8906 91.9219 42.5781 91.7344C43.2656 91.5156 43.9531 91.375 44.6406 91.3125C45.3281 91.2188 45.8594 91.1719 46.2344 91.1719C46.9844 91.1719 47.7344 91.2812 48.4844 91.5C49.2344 91.6875 49.9844 91.7812 50.7344 91.7812C51.4219 91.7812 52.0781 91.6875 52.7031 91.5C53.3281 91.3125 53.9844 91.2188 54.6719 91.2188C55.2656 91.2188 55.8438 91.2656 56.4062 91.3594C57 91.4219 57.5938 91.4531 58.1875 91.4531C58.9375 91.4531 59.6562 91.3281 60.3438 91.0781C61.0625 90.7969 61.7344 90.4375 62.3594 90C62.6094 88.4688 62.7812 86.9375 62.875 85.4062C63 83.875 63.0625 82.3281 63.0625 80.7656C63.0625 79.2344 62.9375 77.7031 62.6875 76.1719C62.4375 74.6406 62.3125 73.125 62.3125 71.625C62.3125 71.5 62.3438 71.4375 62.4062 71.4375C62.4688 71.4062 62.5312 71.3906 62.5938 71.3906C62.6875 71.3594 62.7656 71.3281 62.8281 71.2969C62.8906 71.2344 62.9219 71.1094 62.9219 70.9219C62.9219 70.2656 62.8281 69.625 62.6406 69C62.4531 68.375 62.3594 67.7344 62.3594 67.0781C62.3594 66.2656 62.4688 65.4688 62.6875 64.6875C62.9062 63.9062 63.0156 63.1094 63.0156 62.2969C63.0156 61.7344 62.8906 61.1719 62.6406 60.6094C62.3906 60.0469 62.0625 59.5469 61.6562 59.1094C61.25 58.6719 60.7812 58.3281 60.25 58.0781C59.7188 57.7969 59.1562 57.6562 58.5625 57.6562C57.9062 57.6562 57.25 57.7344 56.5938 57.8906C55.9688 58.0469 55.3125 58.2344 54.625 58.4531C53.9375 58.6406 53.2344 58.8125 52.5156 58.9688C51.8281 59.125 51.0938 59.2031 50.3125 59.2031C49.4062 59.2031 48.5156 59.1406 47.6406 59.0156C46.7656 58.8906 45.875 58.75 44.9688 58.5938C44.5312 58.5312 44.0312 58.4688 43.4688 58.4062C42.9375 58.3438 42.4219 58.2344 41.9219 58.0781C41.4219 57.9219 41 57.6875 40.6562 57.375C40.3125 57.0625 40.1406 56.6094 40.1406 56.0156C40.1406 54.9219 40.3281 54.0938 40.7031 53.5312C41.1094 52.9375 41.5938 52.5 42.1562 52.2188C42.75 51.9375 43.4062 51.7656 44.125 51.7031C44.8438 51.6406 45.5312 51.5781 46.1875 51.5156C47.375 51.4219 48.5469 51.3438 49.7031 51.2812C50.8906 51.1875 52.0781 51.1406 53.2656 51.1406C54.7344 51.1406 56.1719 51.2344 57.5781 51.4219C59.0156 51.5781 60.4688 51.6562 61.9375 51.6562C62.9688 51.6562 63.9531 51.8125 64.8906 52.125C65.8281 52.4375 66.6406 52.9219 67.3281 53.5781C68.0469 54.2031 68.6094 55 69.0156 55.9688C69.4219 56.9375 69.625 58.0625 69.625 59.3438C69.625 60.1875 69.4375 61.0156 69.0625 61.8281C68.7188 62.6094 68.2656 63.3125 67.7031 63.9375C67.9219 64.3438 68.1406 64.625 68.3594 64.7812C68.5781 64.9062 68.7812 65.0312 68.9688 65.1562C69.1562 65.25 69.3125 65.3906 69.4375 65.5781C69.5625 65.7344 69.625 66.0469 69.625 66.5156C69.625 66.7656 69.6562 67.0625 69.7188 67.4062C69.8125 67.7188 70.0312 67.8906 70.375 67.9219C70.375 69.6094 70.3594 71.2812 70.3281 72.9375C70.2969 74.5625 70.2812 76.2031 70.2812 77.8594C70.2812 79.2656 70.2812 80.6719 70.2812 82.0781C70.3125 83.4844 70.4375 84.8906 70.6562 86.2969C70.7812 87.1719 71.0312 87.8438 71.4062 88.3125C71.7812 88.7812 72.4531 89.0156 73.4219 89.0156C74.8281 89.0156 76.2188 88.875 77.5938 88.5938C78.9688 88.2812 80.3594 88.125 81.7656 88.125C82.5781 88.125 83.3438 88.3281 84.0625 88.7344C84.8125 89.1406 85.5156 89.5781 86.1719 90.0469C86.8594 90.5156 87.5156 90.9531 88.1406 91.3594C88.7656 91.7656 89.3594 91.9688 89.9219 91.9688C90.1719 91.9688 90.375 92.0625 90.5312 92.25C90.6875 92.4062 90.7969 92.6094 90.8594 92.8594C90.9531 93.0781 91 93.3125 91 93.5625C91.0312 93.8125 91.0469 94.0312 91.0469 94.2188ZM113.078 60.375C113.078 61.1875 112.922 61.9531 112.609 62.6719C112.297 63.3906 112.141 64.1562 112.141 64.9688C112.141 65.4062 112.219 65.8125 112.375 66.1875C112.531 66.5312 112.609 66.9062 112.609 67.3125C112.609 67.6562 112.5 68.3906 112.281 69.5156C112.094 70.6094 111.859 71.7969 111.578 73.0781C111.297 74.3281 111.016 75.5 110.734 76.5938C110.453 77.6562 110.25 78.3281 110.125 78.6094C109.812 79.1719 109.453 79.6719 109.047 80.1094C108.672 80.5469 108.484 81.0781 108.484 81.7031C108.484 82.0469 108.531 82.375 108.625 82.6875C108.719 82.9688 108.766 83.2812 108.766 83.625C108.766 83.9062 108.672 84.1875 108.484 84.4688C108.297 84.75 108.094 85.0469 107.875 85.3594C107.688 85.6719 107.5 86.0156 107.312 86.3906C107.125 86.7344 107.031 87.125 107.031 87.5625C107.031 87.8125 107.062 88.0312 107.125 88.2188C107.188 88.4062 107.25 88.625 107.312 88.875C106.812 89.2812 106.453 89.6719 106.234 90.0469C106.016 90.4219 105.859 90.7969 105.766 91.1719C105.672 91.5469 105.594 91.9375 105.531 92.3438C105.5 92.7188 105.422 93.1094 105.297 93.5156C105.172 94.0781 104.859 94.8125 104.359 95.7188C103.891 96.625 103.328 97.5 102.672 98.3438C102.016 99.2188 101.312 99.9688 100.562 100.594C99.8438 101.25 99.1562 101.578 98.5 101.578C98.0625 101.578 97.625 101.484 97.1875 101.297C96.7812 101.141 96.4062 100.906 96.0625 100.594C95.7188 100.312 95.4375 99.9688 95.2188 99.5625C95.0312 99.1875 94.9375 98.7656 94.9375 98.2969C94.9375 97.4219 95.1875 96.6406 95.6875 95.9531C96.1875 95.2656 96.7656 94.5781 97.4219 93.8906C98.0781 93.2031 98.7188 92.4844 99.3438 91.7344C99.9688 90.9844 100.391 90.1094 100.609 89.1094C100.734 88.5156 100.844 88.0469 100.938 87.7031C101.062 87.3594 101.188 87.0625 101.312 86.8125C101.469 86.5625 101.641 86.3125 101.828 86.0625C102.016 85.7812 102.25 85.4062 102.531 84.9375C103.406 83.2188 104.031 81.3594 104.406 79.3594C104.812 77.3281 105.016 75.3281 105.016 73.3594C105.016 72.5781 105.109 71.8281 105.297 71.1094C105.484 70.3594 105.672 69.625 105.859 68.9062C106.078 68.1562 106.281 67.4219 106.469 66.7031C106.656 65.9531 106.75 65.1875 106.75 64.4062C106.75 63.3438 106.703 62.2344 106.609 61.0781C106.516 59.9219 106.281 58.8594 105.906 57.8906C105.781 57.6406 105.656 57.4219 105.531 57.2344C105.438 57.0156 105.391 56.7812 105.391 56.5312C105.391 56.0625 105.484 55.6094 105.672 55.1719C105.891 54.7031 106 54.2344 106 53.7656C106 53.3281 105.891 52.9219 105.672 52.5469C105.453 52.1406 105.297 51.75 105.203 51.375C104.891 50.5312 104.703 49.6719 104.641 48.7969C104.578 47.8906 104.5 47.0156 104.406 46.1719C104.312 45.2969 104.109 44.4688 103.797 43.6875C103.484 42.9062 102.906 42.2031 102.062 41.5781C102 41.4844 101.969 41.3906 101.969 41.2969C101.969 41.1719 101.969 41.0625 101.969 40.9688V40.5C101.969 40.0312 101.844 39.5938 101.594 39.1875C101.375 38.75 101.266 38.2969 101.266 37.8281C101.266 37.1094 101.062 36.5 100.656 36C100.281 35.5 99.875 34.9844 99.4375 34.4531C99.0625 34.0156 98.7969 33.5312 98.6406 33C98.4844 32.4688 98.2812 31.9688 98.0312 31.5C97.7188 30.9688 97.3594 30.4844 96.9531 30.0469C96.5781 29.6094 96.2188 29.1562 95.875 28.6875C95.5625 28.2188 95.2969 27.6875 95.0781 27.0938C94.8594 26.5 94.75 25.7812 94.75 24.9375C94.75 24.4063 94.875 23.9687 95.125 23.625C95.4062 23.25 95.75 22.9688 96.1562 22.7812C96.5625 22.5625 97 22.4062 97.4688 22.3125C97.9688 22.2188 98.4375 22.1719 98.875 22.1719C99.875 22.1719 100.703 22.3906 101.359 22.8281C102.016 23.2344 102.594 23.7656 103.094 24.4219C103.594 25.0781 104.031 25.7969 104.406 26.5781C104.812 27.3594 105.234 28.0937 105.672 28.7812C105.984 29.3125 106.328 29.8281 106.703 30.3281C107.109 30.7969 107.484 31.2969 107.828 31.8281C108.172 32.3594 108.453 32.9219 108.672 33.5156C108.922 34.0781 109.047 34.7188 109.047 35.4375C109.047 36 109.125 36.5312 109.281 37.0312C109.469 37.5312 109.688 38.0469 109.938 38.5781C110.969 41.0469 111.641 43.5781 111.953 46.1719C112.266 48.7656 112.422 51.3906 112.422 54.0469C112.422 54.3906 112.406 54.7344 112.375 55.0781C112.375 55.3906 112.375 55.7188 112.375 56.0625C112.375 56.8438 112.484 57.6094 112.703 58.3594C112.953 59.0781 113.078 59.75 113.078 60.375Z" fill="black"/>
</g>
<defs>
<clipPath id="clip0_1_9">
<rect width="128" height="128" fill="white"/>
</clipPath>
</defs>
</svg>
